<?xml version="1.0" encoding="utf-8" ?>
<svg xmlns="http://www.w3.org/2000/svg" xmlns:xlink="http://www.w3.org/1999/xlink" width="14" height="10">
	<defs>
		<clipPath id="clip_0">
			<rect x="-721.83984" y="-939.07001" width="1674" height="1395" clip-rule="evenodd"/>
		</clipPath>
	</defs>
	<g clip-path="url(#clip_0)">
		<path fill="rgb(35,31,32)" stroke="none" transform="matrix(0.93 0 0 0.93 0.77002 0.43457)" d="M13.923 5.21325C14.024 4.96825 14.024 4.69325 13.923 4.44825C13.872 4.32625 13.799 4.21525 13.707 4.12325L9.876 0.29325C9.486 -0.09775 8.853 -0.09775 8.462 0.29325C8.071 0.68325 8.071 1.31625 8.462 1.70725L10.586 3.83125L1 3.83125C0.448 3.83125 0 4.27825 0 4.83125C0 5.38325 0.448 5.83125 1 5.83125L10.586 5.83125L8.462 7.95525C8.071 8.34525 8.071 8.97825 8.462 9.36925C8.657 9.56425 8.913 9.66225 9.169 9.66225C9.425 9.66225 9.681 9.56425 9.876 9.36925L13.707 5.53825C13.799 5.44625 13.872 5.33525 13.923 5.21325"/>
	</g>

</svg>