<?xml version="1.0" encoding="utf-8" ?>
<svg xmlns="http://www.w3.org/2000/svg" xmlns:xlink="http://www.w3.org/1999/xlink" width="50" height="50">
	<defs>
		<clipPath id="clip_0">
			<rect x="-10" y="-250" width="1800" height="1500" clip-rule="evenodd"/>
		</clipPath>
	</defs>
	<g clip-path="url(#clip_0)">
		<path fill="rgb(255,255,255)" fill-opacity="0.098039217" stroke="none" transform="translate(5 5)" d="M20 40C31.0457 40 40 31.0457 40 20C40 8.9543 31.0457 0 20 0C8.9543 0 0 8.9543 0 20C0 31.0457 8.9543 40 20 40Z"/>
	</g>
	<defs>
		<clipPath id="clip_1">
			<rect x="-10" y="-250" width="1800" height="1500" clip-rule="evenodd"/>
		</clipPath>
	</defs>
	<g clip-path="url(#clip_1)">
		<path fill="rgb(35,31,32)" stroke="none" transform="translate(16 15)" d="M1 0L7 0C7.552 0 8 0.448 8 1L8 5C8 5.552 7.552 6 7 6L1 6C0.448 6 0 5.552 0 5L0 1C0 0.448 0.448 0 1 0ZM11 0L17 0C17.552 0 18 0.448 18 1L18 10C18 10.552 17.552 11 17 11L11 11C10.448 11 10 10.552 10 10L10 1C10 0.448 10.448 0 11 0ZM6 4L2 4L2 2L6 2L6 4ZM12 9L16 9L16 2L12 2L12 9ZM1 8L7 8C7.552 8 8 8.448 8 9L8 18C8 18.552 7.552 19 7 19L1 19C0.448 19 0 18.552 0 18L0 9C0 8.448 0.448 8 1 8ZM2 17L6 17L6 10L2 10L2 17ZM11 13L17 13C17.552 13 18 13.448 18 14L18 18C18 18.552 17.552 19 17 19L11 19C10.448 19 10 18.552 10 18L10 14C10 13.448 10.448 13 11 13ZM12 17L16 17L16 15L12 15L12 17Z" fill-rule="evenodd"/>
	</g>
	<defs>
		<clipPath id="clip_2">
			<path d="M23 15L17 15C16.448 15 16 15.448 16 16L16 20C16 20.552 16.448 21 17 21L23 21C23.552 21 24 20.552 24 20L24 16C24 15.448 23.552 15 23 15ZM33 15L27 15C26.448 15 26 15.448 26 16L26 25C26 25.552 26.448 26 27 26L33 26C33.552 26 34 25.552 34 25L34 16C34 15.448 33.552 15 33 15ZM18 19L22 19L22 17L18 17L18 19ZM32 24L28 24L28 17L32 17L32 24ZM23 23L17 23C16.448 23 16 23.448 16 24L16 33C16 33.552 16.448 34 17 34L23 34C23.552 34 24 33.552 24 33L24 24C24 23.448 23.552 23 23 23ZM22 32L18 32L18 25L22 25L22 32ZM33 28L27 28C26.448 28 26 28.448 26 29L26 33C26 33.552 26.448 34 27 34L33 34C33.552 34 34 33.552 34 33L34 29C34 28.448 33.552 28 33 28ZM32 32L28 32L28 30L32 30L32 32Z" clip-rule="evenodd"/>
		</clipPath>
	</defs>
	<g clip-path="url(#clip_2)">
		<path fill="rgb(255,255,255)" stroke="none" transform="translate(10 10)" d="M0 0L30 0L30 30L0 30L0 0Z"/>
	</g>

</svg>