<?xml version="1.0" encoding="utf-8" ?>
<svg xmlns="http://www.w3.org/2000/svg" xmlns:xlink="http://www.w3.org/1999/xlink" width="30" height="30">
	<defs>
		<clipPath id="clip_0">
			<rect x="-20" y="-390" width="1800" height="1500" clip-rule="evenodd"/>
		</clipPath>
	</defs>
	<g clip-path="url(#clip_0)">
		<path fill="rgb(35,31,32)" stroke="none" transform="translate(6 6)" d="M18.645 0.29325C18.254 -0.09775 17.622 -0.09775 17.231 0.29325L14.616 2.90825C13.026 1.63325 11.067 0.93825 9 0.93825C6.597 0.93825 4.336 1.87425 2.637 3.57425C0.937 5.27325 0 7.53425 0 9.93825C0 12.3412 0.937 14.6022 2.637 16.3012C3.027 16.6922 3.66 16.6922 4.051 16.3012C4.441 15.9112 4.441 15.2782 4.051 14.8872C2.728 13.5652 2 11.8072 2 9.93825C2 8.06825 2.728 6.31025 4.051 4.98825C5.373 3.66625 7.131 2.93825 9 2.93825C10.532 2.93825 11.984 3.43325 13.187 4.33625L8.293 9.23125C7.903 9.62125 7.903 10.2542 8.293 10.6452C8.489 10.8403 8.745 10.9382 9 10.9382C9.256 10.9382 9.512 10.8403 9.707 10.6452L14.602 5.75125C15.505 6.95425 16 8.40625 16 9.93825C16 11.8072 15.272 13.5652 13.95 14.8872C13.56 15.2782 13.56 15.9112 13.95 16.3012C14.145 16.4972 14.401 16.5942 14.657 16.5942C14.913 16.5942 15.169 16.4972 15.364 16.3012C17.064 14.6022 18 12.3412 18 9.93825C18 7.87125 17.305 5.91225 16.03 4.32225L18.645 1.70725C19.036 1.31625 19.036 0.68425 18.645 0.29325"/>
	</g>
	<defs>
		<clipPath id="clip_1">
			<path d="M23.231 6.29325C23.622 5.90225 24.254 5.90225 24.645 6.29325C25.036 6.68425 25.036 7.31625 24.645 7.70725L22.03 10.3223C23.305 11.9122 24 13.8713 24 15.9382C24 18.3412 23.064 20.6022 21.364 22.3012C21.169 22.4972 20.913 22.5942 20.657 22.5942C20.401 22.5942 20.145 22.4972 19.95 22.3012C19.56 21.9112 19.56 21.2782 19.95 20.8872C21.272 19.5653 22 17.8072 22 15.9382C22 14.4063 21.505 12.9542 20.602 11.7512L15.707 16.6452C15.512 16.8403 15.256 16.9382 15 16.9382C14.745 16.9382 14.489 16.8403 14.293 16.6452C13.903 16.2542 13.903 15.6213 14.293 15.2312L19.187 10.3363C17.984 9.43325 16.532 8.93825 15 8.93825C13.131 8.93825 11.373 9.66625 10.051 10.9883C8.728 12.3102 8 14.0682 8 15.9382C8 17.8072 8.728 19.5653 10.051 20.8872C10.441 21.2782 10.441 21.9112 10.051 22.3012C9.66 22.6922 9.027 22.6922 8.637 22.3012C6.937 20.6022 6 18.3412 6 15.9382C6 13.5343 6.937 11.2733 8.637 9.57425C10.336 7.87425 12.597 6.93825 15 6.93825C17.067 6.93825 19.026 7.63325 20.616 8.90825L23.231 6.29325Z" clip-rule="evenodd"/>
		</clipPath>
	</defs>
	<g clip-path="url(#clip_1)">
		<path fill="rgb(255,255,255)" stroke="none" d="M0 0L30 0L30 30L0 30L0 0Z"/>
	</g>

</svg>