<?xml version="1.0" encoding="utf-8" ?>
<svg xmlns="http://www.w3.org/2000/svg" xmlns:xlink="http://www.w3.org/1999/xlink" width="30" height="30">
	<defs>
		<clipPath id="clip_0">
			<path d="M25.2505 15.1245C25.2505 17.6265 24.3335 19.9145 22.8255 21.6825C22.8185 21.6905 22.8155 21.7005 22.8095 21.7075C22.7615 21.7645 22.7065 21.8115 22.6575 21.8675C22.4885 22.0555 22.3155 22.2405 22.1335 22.4155C22.0465 22.4985 21.9575 22.5775 21.8675 22.6565C21.6975 22.8095 21.5245 22.9565 21.3445 23.0975C21.2445 23.1755 21.1435 23.2505 21.0405 23.3255C20.8595 23.4565 20.6755 23.5805 20.4855 23.6985C20.3795 23.7655 20.2735 23.8315 20.1655 23.8935C19.9675 24.0075 19.7645 24.1135 19.5575 24.2135C19.4525 24.2655 19.3485 24.3185 19.2415 24.3665C19.0215 24.4645 18.7955 24.5515 18.5685 24.6345C18.4685 24.6705 18.3695 24.7105 18.2685 24.7445C18.0265 24.8235 17.7785 24.8885 17.5285 24.9495C17.4365 24.9725 17.3455 25.0005 17.2515 25.0205C16.9855 25.0785 16.7145 25.1185 16.4415 25.1545C16.3605 25.1645 16.2805 25.1825 16.1985 25.1915C15.8455 25.2285 15.4875 25.2495 15.1255 25.2495C14.7625 25.2495 14.4045 25.2285 14.0515 25.1915C13.9695 25.1825 13.8895 25.1645 13.8085 25.1545C13.5355 25.1185 13.2645 25.0785 12.9985 25.0205C12.9045 25.0005 12.8135 24.9725 12.7215 24.9495C12.4715 24.8885 12.2235 24.8235 11.9815 24.7445C11.8805 24.7105 11.7815 24.6705 11.6815 24.6345C11.4545 24.5515 11.2285 24.4645 11.0085 24.3665C10.9015 24.3185 10.7975 24.2655 10.6925 24.2135C10.4855 24.1135 10.2825 24.0075 10.0845 23.8935C9.97649 23.8315 9.87049 23.7655 9.76449 23.6985C9.57449 23.5805 9.39049 23.4565 9.20949 23.3255C9.10649 23.2505 9.00549 23.1755 8.90549 23.0975C8.72549 22.9565 8.55249 22.8095 8.38249 22.6565C8.29249 22.5775 8.20349 22.4985 8.11649 22.4155C7.93449 22.2405 7.76149 22.0555 7.59249 21.8675C7.54349 21.8115 7.48849 21.7645 7.44049 21.7075C7.43449 21.7005 7.43149 21.6905 7.42449 21.6825C5.91649 19.9145 5.00049 17.6265 5.00049 15.1245C5.00049 9.54151 9.54249 4.99951 15.1255 4.99951C20.7085 4.99951 25.2505 9.54151 25.2505 15.1245ZM23.0005 15.1245C23.0005 10.7825 19.4675 7.24951 15.1255 7.24951C10.7825 7.24951 7.25049 10.7825 7.25049 15.1245C7.25049 16.5655 7.64549 17.9135 8.32349 19.0755C10.0395 17.1345 12.4765 15.9995 15.1255 15.9995C17.7735 15.9995 20.2105 17.1345 21.9265 19.0755C22.6045 17.9135 23.0005 16.5655 23.0005 15.1245ZM17.878 12.1249C17.878 13.6429 16.643 14.8779 15.125 14.8779C13.607 14.8779 12.372 13.6429 12.372 12.1249C12.372 10.6069 13.607 9.37191 15.125 9.37191C16.643 9.37191 17.878 10.6069 17.878 12.1249ZM16.372 12.1249C16.372 11.4379 15.812 10.8779 15.125 10.8779C14.438 10.8779 13.878 11.4379 13.878 12.1249C13.878 12.8129 14.438 13.3719 15.125 13.3719C15.812 13.3719 16.372 12.8129 16.372 12.1249ZM20.0075 21.2915C20.1335 21.1915 20.2555 21.0855 20.3755 20.9775C20.4195 20.9375 20.4635 20.8985 20.5065 20.8585C19.2075 19.2115 17.2505 18.2495 15.1255 18.2495C12.9995 18.2495 11.0425 19.2115 9.74349 20.8585C9.78649 20.8985 9.83049 20.9375 9.87449 20.9775C9.99449 21.0855 10.1165 21.1915 10.2425 21.2915C10.3135 21.3485 10.3875 21.4005 10.4595 21.4555C10.5875 21.5485 10.7155 21.6425 10.8485 21.7275C10.9245 21.7775 11.0035 21.8235 11.0825 21.8705C11.2175 21.9515 11.3535 22.0325 11.4935 22.1055C11.5735 22.1475 11.6565 22.1845 11.7375 22.2235C11.8815 22.2915 12.0245 22.3605 12.1715 22.4195C12.2565 22.4555 12.3455 22.4835 12.4325 22.5155C12.5795 22.5695 12.7255 22.6235 12.8755 22.6685C12.9745 22.6985 13.0765 22.7205 13.1765 22.7465C13.3185 22.7825 13.4595 22.8205 13.6035 22.8495C13.7325 22.8745 13.8655 22.8905 13.9965 22.9095C14.1155 22.9265 14.2325 22.9495 14.3535 22.9605C14.6065 22.9855 14.8645 22.9995 15.1255 22.9995C15.3855 22.9995 15.6435 22.9855 15.8965 22.9605C16.0175 22.9495 16.1345 22.9265 16.2535 22.9095C16.3845 22.8905 16.5175 22.8745 16.6465 22.8495C16.7905 22.8205 16.9315 22.7825 17.0735 22.7465C17.1735 22.7205 17.2755 22.6985 17.3745 22.6685C17.5245 22.6235 17.6705 22.5695 17.8175 22.5155C17.9045 22.4835 17.9935 22.4555 18.0785 22.4195C18.2255 22.3605 18.3685 22.2915 18.5125 22.2235C18.5935 22.1845 18.6765 22.1475 18.7565 22.1055C18.8965 22.0325 19.0325 21.9515 19.1675 21.8705C19.2465 21.8235 19.3255 21.7775 19.4015 21.7275C19.5345 21.6425 19.6625 21.5485 19.7905 21.4555C19.8625 21.4005 19.9365 21.3485 20.0075 21.2915Z" clip-rule="evenodd"/>
		</clipPath>
	</defs>
	<g clip-path="url(#clip_0)">
		<path fill="rgb(255,255,255)" stroke="none" d="M0 0L30 0L30 30L0 30L0 0Z"/>
	</g>

</svg>