<?xml version="1.0" encoding="utf-8" ?>
<svg xmlns="http://www.w3.org/2000/svg" xmlns:xlink="http://www.w3.org/1999/xlink" width="50" height="50">
	<defs>
		<clipPath id="clip_0">
			<path d="M50 25Q50 24.3597 49.9709 23.7236Q49.9417 23.0876 49.8835 22.4571Q49.8253 21.8266 49.7381 21.2031Q49.6509 20.5795 49.5349 19.9641Q49.4189 19.3486 49.2744 18.7426Q49.1298 18.1366 48.9571 17.5412Q48.7843 16.9459 48.5836 16.3624Q48.3829 15.7788 48.1547 15.2084Q47.9265 14.6379 47.6713 14.0817Q47.4161 13.5254 47.1344 12.9845Q46.8526 12.4436 46.545 11.9191Q46.2373 11.3947 45.9044 10.8877Q45.5714 10.3808 45.2138 9.89243Q44.8562 9.40405 44.4747 8.93522Q44.0933 8.46639 43.6887 8.01807Q43.284 7.56976 42.8571 7.14286Q42.4302 6.71596 41.9819 6.31136Q41.5336 5.90675 41.0648 5.52527Q40.596 5.14378 40.1076 4.78619Q39.6192 4.4286 39.1123 4.09564Q38.6053 3.76268 38.0809 3.45502Q37.5564 3.14737 37.0155 2.86564Q36.4746 2.58392 35.9184 2.32871Q35.3621 2.07349 34.7916 1.8453Q34.2212 1.61712 33.6377 1.41643Q33.0541 1.21573 32.4588 1.04295Q31.8634 0.870158 31.2574 0.725625Q30.6514 0.581093 30.0359 0.465112Q29.4205 0.349131 28.7969 0.261937Q28.1734 0.174744 27.5429 0.116516Q26.9124 0.0582875 26.2764 0.0291438Q25.6403 0 25 0Q24.3597 0 23.7236 0.0291438Q23.0876 0.0582875 22.4571 0.116516Q21.8266 0.174744 21.2031 0.261937Q20.5795 0.349131 19.9641 0.465112Q19.3486 0.581093 18.7426 0.725625Q18.1366 0.870158 17.5412 1.04295Q16.9459 1.21573 16.3624 1.41643Q15.7788 1.61712 15.2084 1.8453Q14.6379 2.07349 14.0817 2.32871Q13.5254 2.58392 12.9845 2.86564Q12.4436 3.14737 11.9191 3.45502Q11.3947 3.76268 10.8877 4.09564Q10.3808 4.4286 9.89243 4.78619Q9.40405 5.14378 8.93522 5.52527Q8.46639 5.90675 8.01807 6.31136Q7.56976 6.71596 7.14286 7.14286Q6.71596 7.56976 6.31136 8.01807Q5.90675 8.46639 5.52527 8.93522Q5.14378 9.40405 4.78619 9.89243Q4.4286 10.3808 4.09564 10.8877Q3.76268 11.3947 3.45502 11.9191Q3.14737 12.4436 2.86564 12.9845Q2.58392 13.5254 2.32871 14.0817Q2.07349 14.6379 1.8453 15.2084Q1.61712 15.7788 1.41643 16.3624Q1.21573 16.9459 1.04295 17.5412Q0.870158 18.1366 0.725625 18.7426Q0.581093 19.3486 0.465112 19.9641Q0.349131 20.5795 0.261937 21.2031Q0.174744 21.8266 0.116516 22.4571Q0.0582875 23.0876 0.0291438 23.7236Q0 24.3597 0 25Q0 25.6403 0.0291438 26.2764Q0.0582875 26.9124 0.116516 27.5429Q0.174744 28.1734 0.261937 28.7969Q0.349131 29.4205 0.465112 30.0359Q0.581093 30.6514 0.725625 31.2574Q0.870158 31.8634 1.04295 32.4588Q1.21573 33.0541 1.41643 33.6377Q1.61712 34.2212 1.8453 34.7916Q2.07349 35.3621 2.32871 35.9184Q2.58392 36.4746 2.86564 37.0155Q3.14737 37.5564 3.45502 38.0809Q3.76268 38.6053 4.09564 39.1123Q4.4286 39.6192 4.78619 40.1076Q5.14378 40.596 5.52527 41.0648Q5.90675 41.5336 6.31136 41.9819Q6.71596 42.4302 7.14286 42.8571Q7.56976 43.284 8.01807 43.6887Q8.46639 44.0933 8.93522 44.4747Q9.40405 44.8562 9.89243 45.2138Q10.3808 45.5714 10.8877 45.9044Q11.3947 46.2373 11.9191 46.545Q12.4436 46.8526 12.9845 47.1344Q13.5254 47.4161 14.0817 47.6713Q14.6379 47.9265 15.2084 48.1547Q15.7788 48.3829 16.3624 48.5836Q16.9459 48.7843 17.5412 48.9571Q18.1366 49.1298 18.7426 49.2744Q19.3486 49.4189 19.9641 49.5349Q20.5795 49.6509 21.2031 49.7381Q21.8266 49.8253 22.4571 49.8835Q23.0876 49.9417 23.7236 49.9709Q24.3597 50 25 50Q25.6403 50 26.2764 49.9709Q26.9124 49.9417 27.5429 49.8835Q28.1734 49.8253 28.7969 49.7381Q29.4205 49.6509 30.0359 49.5349Q30.6514 49.4189 31.2574 49.2744Q31.8634 49.1298 32.4588 48.9571Q33.0541 48.7843 33.6377 48.5836Q34.2212 48.3829 34.7916 48.1547Q35.3621 47.9265 35.9184 47.6713Q36.4746 47.4161 37.0155 47.1344Q37.5564 46.8526 38.0809 46.545Q38.6053 46.2373 39.1123 45.9044Q39.6192 45.5714 40.1076 45.2138Q40.596 44.8562 41.0648 44.4747Q41.5336 44.0933 41.9819 43.6887Q42.4302 43.284 42.8571 42.8571Q43.284 42.4302 43.6887 41.9819Q44.0933 41.5336 44.4747 41.0648Q44.8562 40.596 45.2138 40.1076Q45.5714 39.6192 45.9044 39.1123Q46.2373 38.6053 46.545 38.0809Q46.8526 37.5564 47.1344 37.0155Q47.4161 36.4746 47.6713 35.9184Q47.9265 35.3621 48.1547 34.7916Q48.3829 34.2212 48.5836 33.6377Q48.7843 33.0541 48.9571 32.4588Q49.1298 31.8634 49.2744 31.2574Q49.4189 30.6514 49.5349 30.0359Q49.6509 29.4205 49.7381 28.7969Q49.8253 28.1734 49.8835 27.5429Q49.9417 26.9124 49.9709 26.2764Q50 25.6403 50 25Z" clip-rule="evenodd"/>
		</clipPath>
	</defs>
	<g clip-path="url(#clip_0)">
		<path fill="none" stroke="rgb(10,10,10)" stroke-width="4" stroke-miterlimit="4" d="M25 0L25 0Q25.6403 0 26.2764 0.0291438Q26.9124 0.0582875 27.5429 0.116516Q28.1734 0.174744 28.7969 0.261937Q29.4205 0.349131 30.0359 0.465112Q30.6514 0.581093 31.2574 0.725625Q31.8634 0.870158 32.4588 1.04295Q33.0541 1.21573 33.6377 1.41643Q34.2212 1.61712 34.7916 1.8453Q35.3621 2.07349 35.9184 2.32871Q36.4746 2.58392 37.0155 2.86564Q37.5564 3.14737 38.0809 3.45502Q38.6053 3.76268 39.1123 4.09564Q39.6192 4.4286 40.1076 4.78619Q40.596 5.14378 41.0648 5.52527Q41.5336 5.90675 41.9819 6.31136Q42.4302 6.71596 42.8571 7.14286Q43.284 7.56976 43.6887 8.01807Q44.0933 8.46639 44.4747 8.93522Q44.8562 9.40405 45.2138 9.89243Q45.5714 10.3808 45.9044 10.8877Q46.2373 11.3947 46.545 11.9191Q46.8526 12.4436 47.1344 12.9845Q47.4161 13.5254 47.6713 14.0817Q47.9265 14.6379 48.1547 15.2084Q48.3829 15.7788 48.5836 16.3624Q48.7843 16.9459 48.9571 17.5412Q49.1298 18.1366 49.2744 18.7426Q49.4189 19.3486 49.5349 19.9641Q49.6509 20.5795 49.7381 21.2031Q49.8253 21.8266 49.8835 22.4571Q49.9417 23.0876 49.9709 23.7236Q50 24.3597 50 25L50 25Q50 25.6403 49.9709 26.2764Q49.9417 26.9124 49.8835 27.5429Q49.8253 28.1734 49.7381 28.7969Q49.6509 29.4205 49.5349 30.0359Q49.4189 30.6514 49.2744 31.2574Q49.1298 31.8634 48.9571 32.4588Q48.7843 33.0541 48.5836 33.6377Q48.3829 34.2212 48.1547 34.7916Q47.9265 35.3621 47.6713 35.9184Q47.4161 36.4746 47.1344 37.0155Q46.8526 37.5564 46.545 38.0809Q46.2373 38.6053 45.9044 39.1123Q45.5714 39.6192 45.2138 40.1076Q44.8562 40.596 44.4747 41.0648Q44.0933 41.5336 43.6887 41.9819Q43.284 42.4302 42.8571 42.8571Q42.4302 43.284 41.9819 43.6887Q41.5336 44.0933 41.0648 44.4747Q40.596 44.8562 40.1076 45.2138Q39.6192 45.5714 39.1123 45.9044Q38.6053 46.2373 38.0809 46.545Q37.5564 46.8526 37.0155 47.1344Q36.4746 47.4161 35.9184 47.6713Q35.3621 47.9265 34.7916 48.1547Q34.2212 48.3829 33.6377 48.5836Q33.0541 48.7843 32.4588 48.9571Q31.8634 49.1298 31.2574 49.2744Q30.6514 49.4189 30.0359 49.5349Q29.4205 49.6509 28.7969 49.7381Q28.1734 49.8253 27.5429 49.8835Q26.9124 49.9417 26.2764 49.9709Q25.6403 50 25 50L25 50Q24.3597 50 23.7236 49.9709Q23.0876 49.9417 22.4571 49.8835Q21.8266 49.8253 21.2031 49.7381Q20.5795 49.6509 19.9641 49.5349Q19.3486 49.4189 18.7426 49.2744Q18.1366 49.1298 17.5412 48.9571Q16.9459 48.7843 16.3624 48.5836Q15.7788 48.3829 15.2084 48.1547Q14.6379 47.9265 14.0817 47.6713Q13.5254 47.4161 12.9845 47.1344Q12.4436 46.8526 11.9191 46.545Q11.3947 46.2373 10.8877 45.9044Q10.3808 45.5714 9.89243 45.2138Q9.40405 44.8562 8.93522 44.4747Q8.46639 44.0933 8.01807 43.6887Q7.56976 43.284 7.14286 42.8571Q6.71596 42.4302 6.31136 41.9819Q5.90675 41.5336 5.52527 41.0648Q5.14378 40.596 4.78619 40.1076Q4.4286 39.6192 4.09564 39.1123Q3.76268 38.6053 3.45502 38.0809Q3.14737 37.5564 2.86564 37.0155Q2.58392 36.4746 2.32871 35.9184Q2.07349 35.3621 1.8453 34.7916Q1.61712 34.2212 1.41643 33.6377Q1.21573 33.0541 1.04295 32.4588Q0.870158 31.8634 0.725625 31.2574Q0.581093 30.6514 0.465112 30.0359Q0.349131 29.4205 0.261937 28.7969Q0.174744 28.1734 0.116516 27.5429Q0.0582875 26.9124 0.0291438 26.2764Q0 25.6403 0 25L0 25Q0 24.3597 0.0291438 23.7236Q0.0582875 23.0876 0.116516 22.4571Q0.174744 21.8266 0.261937 21.2031Q0.349131 20.5795 0.465112 19.9641Q0.581093 19.3486 0.725625 18.7426Q0.870158 18.1366 1.04295 17.5412Q1.21573 16.9459 1.41643 16.3624Q1.61712 15.7788 1.8453 15.2084Q2.07349 14.6379 2.32871 14.0817Q2.58392 13.5254 2.86564 12.9845Q3.14737 12.4436 3.45502 11.9191Q3.76268 11.3947 4.09564 10.8877Q4.4286 10.3808 4.78619 9.89243Q5.14378 9.40405 5.52527 8.93522Q5.90675 8.46639 6.31136 8.01807Q6.71596 7.56976 7.14286 7.14286Q7.56976 6.71596 8.01807 6.31136Q8.46639 5.90675 8.93522 5.52527Q9.40405 5.14378 9.89243 4.78619Q10.3808 4.4286 10.8877 4.09564Q11.3947 3.76268 11.9191 3.45502Q12.4436 3.14737 12.9845 2.86564Q13.5254 2.58392 14.0817 2.32871Q14.6379 2.07349 15.2084 1.8453Q15.7788 1.61712 16.3624 1.41643Q16.9459 1.21573 17.5412 1.04295Q18.1366 0.870158 18.7426 0.725625Q19.3486 0.581093 19.9641 0.465112Q20.5795 0.349131 21.2031 0.261937Q21.8266 0.174744 22.4571 0.116516Q23.0876 0.0582875 23.7236 0.0291438Q24.3597 0 25 0Z"/>
	</g>
	<defs>
		<clipPath id="clip_1">
			<rect x="-177" y="-55" width="1800" height="1500" clip-rule="evenodd"/>
		</clipPath>
	</defs>
	<g clip-path="url(#clip_1)">
		<path fill="rgb(35,31,32)" stroke="none" transform="translate(18 20.22)" d="M13.923 5.21325C14.024 4.96825 14.024 4.69325 13.923 4.44825C13.872 4.32625 13.799 4.21525 13.707 4.12325L9.876 0.29325C9.486 -0.09775 8.853 -0.09775 8.462 0.29325C8.071 0.68325 8.071 1.31625 8.462 1.70725L10.586 3.83125L1 3.83125C0.448 3.83125 0 4.27825 0 4.83125C0 5.38325 0.448 5.83125 1 5.83125L10.586 5.83125L8.462 7.95525C8.071 8.34525 8.071 8.97825 8.462 9.36925C8.657 9.56425 8.913 9.66225 9.169 9.66225C9.425 9.66225 9.681 9.56425 9.876 9.36925L13.707 5.53825C13.799 5.44625 13.872 5.33525 13.923 5.21325"/>
	</g>
	<defs>
		<clipPath id="clip_2">
			<path d="M31.923 24.6683C32.024 24.9132 32.024 25.1883 31.923 25.4333C31.872 25.5553 31.799 25.6663 31.707 25.7583L27.876 29.5893C27.681 29.7843 27.425 29.8823 27.169 29.8823C26.913 29.8823 26.657 29.7843 26.462 29.5893C26.071 29.1982 26.071 28.5653 26.462 28.1753L28.586 26.0513L19 26.0513C18.448 26.0513 18 25.6033 18 25.0513C18 24.4983 18.448 24.0513 19 24.0513L28.586 24.0513L26.462 21.9273C26.071 21.5363 26.071 20.9033 26.462 20.5133C26.853 20.1223 27.486 20.1223 27.876 20.5133L31.707 24.3433C31.799 24.4353 31.872 24.5463 31.923 24.6683Z" clip-rule="evenodd"/>
		</clipPath>
	</defs>
	<g clip-path="url(#clip_2)">
		<path fill="rgb(10,10,10)" stroke="none" d="M0 0L50 0L50 50L0 50L0 0Z"/>
	</g>

</svg>